<svg width="26" height="26" viewBox="0 0 26 26" fill="none" xmlns="http://www.w3.org/2000/svg">
<mask id="mask0_14_9463" style="mask-type:alpha" maskUnits="userSpaceOnUse" x="0" y="0" width="26" height="26">
<path d="M5.63672 0C2.52357 0 0 2.52357 0 5.63672V20.3633C0 23.4764 2.52357 26 5.63672 26H20.3633C23.4764 26 26 23.4764 26 20.3633V5.63672C26 2.52357 23.4764 0 20.3633 0H5.63672Z" fill="white"/>
</mask>
<g mask="url(#mask0_14_9463)">
<path d="M5.63672 0C2.52357 0 0 2.52357 0 5.63672V20.3633C0 23.4764 2.52357 26 5.63672 26H20.3633C23.4764 26 26 23.4764 26 20.3633V5.63672C26 2.52357 23.4764 0 20.3633 0H5.63672Z" fill="url(#paint0_linear_14_9463)"/>
<mask id="mask1_14_9463" style="mask-type:alpha" maskUnits="userSpaceOnUse" x="0" y="0" width="26" height="26">
<path d="M26 0H0V26H26V0Z" fill="white"/>
</mask>
<g mask="url(#mask1_14_9463)">
<path d="M25.8912 0.10791H0.10791V25.8912H25.8912V0.10791Z" stroke="#979797" stroke-width="0.5"/>
</g>
<mask id="mask2_14_9463" style="mask-type:alpha" maskUnits="userSpaceOnUse" x="0" y="0" width="26" height="26">
<path d="M5.63672 0C2.52357 0 0 2.52357 0 5.63672V20.3633C0 23.4764 2.52357 26 5.63672 26H20.3633C23.4764 26 26 23.4764 26 20.3633V5.63672C26 2.52357 23.4764 0 20.3633 0H5.63672Z" fill="white"/>
</mask>
<g mask="url(#mask2_14_9463)">
<path d="M5.63672 0C2.52357 0 0 2.52357 0 5.63672V20.3633C0 23.4764 2.52357 26 5.63672 26H20.3633C23.4764 26 26 23.4764 26 20.3633V5.63672C26 2.52357 23.4764 0 20.3633 0H5.63672Z" fill="url(#paint1_linear_14_9463)"/>
<path fill-rule="evenodd" clip-rule="evenodd" d="M5.63672 0C2.52357 0 0 2.52357 0 5.63672V20.3633C0 23.4764 2.52357 26 5.63672 26H20.3633C23.4764 26 26 23.4764 26 20.3633V5.63672C26 2.52357 23.4764 0 20.3633 0H5.63672Z" fill="url(#paint2_linear_14_9463)"/>
</g>
<mask id="mask3_14_9463" style="mask-type:alpha" maskUnits="userSpaceOnUse" x="0" y="5" width="26" height="22">
<path d="M25.9101 5.41949C22.7627 6.30839 18.8055 9.39597 16.1669 13.0402C12.3677 18.287 6.84247 21.6238 0 21.3502C0.459062 23.9951 2.77057 26.0064 5.55366 26.0064H20.2802C23.3934 26.0064 25.9169 23.4894 25.9169 20.3843V5.41747C25.9147 5.41822 25.9124 5.41873 25.9101 5.41949Z" fill="white"/>
</mask>
<g mask="url(#mask3_14_9463)">
<path fill-rule="evenodd" clip-rule="evenodd" d="M25.9101 5.41949C22.7627 6.30839 18.8055 9.39597 16.1669 13.0402C12.3677 18.287 6.84247 21.6238 0 21.3502C0.459062 23.9951 2.77057 26.0064 5.55366 26.0064H20.2802C23.3934 26.0064 25.9169 23.4894 25.9169 20.3843V5.41747C25.9147 5.41822 25.9124 5.41873 25.9101 5.41949Z" fill="url(#paint3_linear_14_9463)"/>
</g>
<path fill-rule="evenodd" clip-rule="evenodd" d="M16.5745 18.9391V20.1375C16.5745 20.1657 16.5972 20.1886 16.6251 20.1886H16.9053C17.1279 20.1886 17.2488 20.0836 17.2488 19.7554V19.3213C17.2488 18.9931 17.1279 18.8881 16.9053 18.8881H16.6251C16.5972 18.8881 16.5745 18.911 16.5745 18.9391ZM17.9484 19.3672V19.7094C17.9484 20.4446 17.6049 20.8449 16.9053 20.8449H16.6251C16.5972 20.8449 16.5745 20.8678 16.5745 20.896V22.1118C16.5745 22.2246 16.484 22.316 16.3723 22.316H15.9254C15.8975 22.316 15.8749 22.2932 15.8749 22.265V18.2828C15.8749 18.2546 15.8975 18.2317 15.9254 18.2317H16.9053C17.6049 18.2317 17.9484 18.6321 17.9484 19.3672Z" fill="white"/>
<path fill-rule="evenodd" clip-rule="evenodd" d="M19.0037 18.9391V21.6086C19.0037 21.6368 19.0264 21.6597 19.0543 21.6597H19.3981C19.6207 21.6597 19.7542 21.5416 19.7542 21.2134V19.3344C19.7542 19.0062 19.6207 18.8881 19.3981 18.8881H19.0543C19.0264 18.8881 19.0037 18.911 19.0037 18.9391ZM18.3041 18.2828C18.3041 18.2546 18.3267 18.2317 18.3546 18.2317H19.4108C20.1104 18.2317 20.4539 18.6321 20.4539 19.3672V21.1806C20.4539 21.9157 20.1104 22.316 19.4108 22.316H18.3546C18.3267 22.316 18.3041 22.2932 18.3041 22.265V18.2828Z" fill="white"/>
<path fill-rule="evenodd" clip-rule="evenodd" d="M21.6492 20.0179H22.4513C22.4792 20.0179 22.5019 20.0408 22.5019 20.069V20.6232C22.5019 20.6514 22.4792 20.6743 22.4513 20.6743H21.6492C21.6213 20.6743 21.5987 20.6971 21.5987 20.7253V22.265C21.5987 22.2932 21.5761 22.316 21.5481 22.316H20.9496C20.9217 22.316 20.899 22.2932 20.899 22.265V18.2828C20.899 18.2546 20.9217 18.2317 20.9496 18.2317H22.6994C22.7273 18.2317 22.7499 18.2546 22.7499 18.2828V18.6839C22.7499 18.7967 22.6594 18.8881 22.5477 18.8881H21.6492C21.6213 18.8881 21.5987 18.911 21.5987 18.9391V19.9669C21.5987 19.9951 21.6213 20.0179 21.6492 20.0179Z" fill="white"/>
<mask id="mask4_14_9463" style="mask-type:alpha" maskUnits="userSpaceOnUse" x="0" y="4" width="17" height="18">
<path d="M0 4.54842H16.0696V21.3961H0V4.54842Z" fill="white"/>
</mask>
<g mask="url(#mask4_14_9463)">
<path fill-rule="evenodd" clip-rule="evenodd" d="M1.01111 4.54842C0.700953 4.54842 0.392564 4.55658 0.08645 4.57292C0.029575 4.8966 0 5.22947 0 5.56949V7.63078C0.327347 7.56798 0.665564 7.53505 1.01111 7.53505C3.98479 7.53505 6.39528 9.96929 6.39528 12.9723C6.39528 15.9752 3.98479 18.4095 1.01111 18.4095C0.665564 18.4095 0.327347 18.3766 0 18.3138V20.375C0 20.7151 0.029575 21.0479 0.08645 21.3716H0.0867028C0.392817 21.3879 0.700953 21.3961 1.01111 21.3961C6.85799 21.3961 12.1759 18.4368 15.9805 13.2453C16.0993 13.0833 16.0993 12.8613 15.9805 12.6992C12.1759 7.50774 6.85799 4.54842 1.01111 4.54842Z" fill="white"/>
</g>
<mask id="mask5_14_9463" style="mask-type:alpha" maskUnits="userSpaceOnUse" x="0" y="9" width="5" height="8">
<path d="M0 9.55164H4.39834V16.3928H0V9.55164Z" fill="white"/>
</mask>
<g mask="url(#mask5_14_9463)">
<path fill-rule="evenodd" clip-rule="evenodd" d="M4.39834 12.9789C4.39482 14.8476 2.88692 16.379 1.03646 16.3927C0.675296 16.3954 0.326917 16.3409 0 16.2378V9.70658C0.319258 9.60601 0.658992 9.55164 1.01111 9.55164C2.88412 9.55164 4.4019 11.0866 4.39834 12.9789Z" fill="white"/>
</g>
</g>
<defs>
<linearGradient id="paint0_linear_14_9463" x1="0" y1="26" x2="26" y2="0" gradientUnits="userSpaceOnUse">
<stop stop-color="#FF5D5D"/>
<stop offset="1" stop-color="#E46B93"/>
</linearGradient>
<linearGradient id="paint1_linear_14_9463" x1="0" y1="26" x2="26" y2="0" gradientUnits="userSpaceOnUse">
<stop stop-color="#FF5D5D"/>
<stop offset="1" stop-color="#E46B93"/>
</linearGradient>
<linearGradient id="paint2_linear_14_9463" x1="1.73302" y1="7.74612" x2="24.1893" y2="18.2177" gradientUnits="userSpaceOnUse">
<stop stop-color="#F4464B"/>
<stop offset="1" stop-color="#D60B0A"/>
</linearGradient>
<linearGradient id="paint3_linear_14_9463" x1="11.6119" y1="14.2864" x2="22.8331" y2="22.1232" gradientUnits="userSpaceOnUse">
<stop stop-color="#FF3D46"/>
<stop offset="1" stop-color="#F21717"/>
</linearGradient>
</defs>
</svg>
